<svg width="509" height="399" viewBox="0 0 509 399" fill="none" xmlns="http://www.w3.org/2000/svg">
<rect x="0.355469" y="202.578" width="70.2667" height="148.8" fill="#181818"/>
<rect x="0.355469" y="202.578" width="70.2667" height="8.26667" fill="#D9D9D9"/>
<line x1="0.355469" y1="174.9" x2="508.755" y2="174.9" stroke="white" stroke-width="3" stroke-dasharray="4 4"/>
<line x1="0.355469" y1="397.5" x2="508.755" y2="397.5" stroke="white" stroke-width="3" stroke-dasharray="4 4"/>
<line x1="0.355469" y1="1.5" x2="508.755" y2="1.5" stroke="white" stroke-width="3" stroke-dasharray="4 4"/>
<rect x="219.422" y="75.8223" width="70.2667" height="275.556" fill="#414FB5"/>
<rect x="73.3777" y="235.645" width="70.2667" height="115.733" fill="#191919"/>
<rect x="73.3777" y="235.645" width="70.2667" height="8.26667" fill="#D9D9D9"/>
<rect x="146.4" y="126.8" width="70.2667" height="224.578" fill="#191919"/>
<rect x="146.4" y="126.8" width="70.2667" height="8.26667" fill="#D9D9D9"/>
<rect x="292.444" y="155.733" width="70.2667" height="195.644" fill="#191919"/>
<rect x="292.444" y="155.733" width="70.2667" height="8.26667" fill="#D9D9D9"/>
<rect x="438.489" y="235.645" width="70.2667" height="115.733" fill="#191919"/>
<rect x="438.489" y="235.645" width="70.2667" height="8.26667" fill="#D9D9D9"/>
<rect x="365.467" y="202.578" width="70.2667" height="148.8" fill="#191919"/>
<rect x="365.467" y="202.578" width="70.2667" height="8.26667" fill="#D9D9D9"/>
</svg>
