<svg width="620" height="787" viewBox="0 0 620 787" fill="none" xmlns="http://www.w3.org/2000/svg">
<path d="M11.1445 67C11.1445 30.8254 40.4698 1.5 76.6445 1.5H543.356C579.53 1.5 608.856 30.8254 608.856 67V785.211H11.1445V67Z" fill="black" stroke="#75736E" stroke-width="3"/>
<path d="M0 448.4C0 447.295 0.895431 446.4 2 446.4H9.64444V541.467H2C0.895431 541.467 0 540.571 0 539.467V448.4Z" fill="#75736E"/>
<path d="M610.355 394.044H618C619.104 394.044 620 394.94 620 396.044V539.467C620 540.571 619.104 541.467 618 541.467H610.355V394.044Z" fill="#75736E"/>
<path d="M0 328.533C0 327.429 0.895431 326.533 2 326.533H9.64444V421.6H2C0.895431 421.6 0 420.705 0 419.6V328.533Z" fill="#75736E"/>
<path d="M0 236.222C0 235.118 0.895431 234.222 2 234.222H9.64444V283.822H2C0.895431 283.822 0 282.927 0 281.822V236.222Z" fill="#75736E"/>
<rect x="451.911" y="50.9778" width="4.13333" height="12.4" fill="white"/>
<rect x="460.178" y="46.8444" width="4.13333" height="16.5333" fill="white"/>
<rect x="468.444" y="42.7111" width="4.13333" height="20.6667" fill="white"/>
<rect x="522.178" y="48.2222" width="23.4222" height="13.7778" fill="#D9D9D9"/>
<rect x="520.8" y="50.9778" width="1.37778" height="8.26667" fill="#D9D9D9"/>
<rect x="545.6" y="50.9778" width="5.51111" height="8.26667" fill="#D9D9D9"/>
<path d="M496.716 63.3778C497.903 63.3778 498.865 62.4054 498.865 61.2059C498.865 60.0064 497.903 59.0341 496.716 59.0341C495.53 59.0341 494.567 60.0064 494.567 61.2059C494.567 62.4054 495.53 63.3778 496.716 63.3778Z" fill="white"/>
<path d="M502.848 55.4529C502.052 54.6484 501.125 54.0159 500.092 53.5764C499.022 53.1183 497.885 52.8857 496.716 52.8857C495.548 52.8857 494.36 53.1276 493.27 53.6043C492.218 54.0647 491.279 54.7228 490.479 55.5599L493.125 58.1457C494.075 57.1528 495.347 56.6063 496.714 56.6063C498.081 56.6063 499.3 57.1319 500.244 58.0829L502.848 55.4529Z" fill="white"/>
<path d="M496.717 46.8445C494.74 46.8445 492.821 47.2351 491.013 48.0095C489.269 48.7559 487.702 49.8233 486.356 51.1813L488.958 53.8113C489.966 52.7928 491.139 51.9928 492.444 51.4347C493.794 50.8581 495.23 50.5651 496.712 50.5651C499.623 50.5651 502.363 51.7045 504.431 53.7741L507.022 51.1301C505.685 49.7884 504.123 48.7327 502.388 47.9955C500.591 47.2328 498.682 46.8445 496.717 46.8445Z" fill="white"/>
<circle cx="87.4889" cy="132.956" r="35.1333" fill="#D9D9D9" fill-opacity="0.23"/>
<circle cx="525.622" cy="132.956" r="35.1333" fill="#D9D9D9" fill-opacity="0.23"/>
<circle cx="525.622" cy="142.6" r="3.44444" fill="#D9D9D9"/>
<circle cx="525.622" cy="132.956" r="3.44444" fill="#D9D9D9"/>
<circle cx="525.622" cy="123.311" r="3.44444" fill="#D9D9D9"/>
<rect x="90.2164" y="118.489" width="5.51111" height="21.087" transform="rotate(43.2135 90.2164 118.489)" fill="#D9D9D9"/>
<rect x="77.1555" y="134.786" width="5.51111" height="18.8832" transform="rotate(-45 77.1555 134.786)" fill="#D9D9D9"/>
<rect x="5" y="446.711" width="4" height="95" fill="#181818"/>
<rect x="611" y="393.711" width="4" height="148" fill="#181818"/>
<rect x="5" y="326.711" width="4" height="95" fill="#181818"/>
<rect x="5" y="234.711" width="4" height="49" fill="#181818"/>
</svg>
